# xmcd
#
# Track frame offsets: 
#        150
#        14423
#        27867
#        38927
#        55179
#        68440
#        83868
#        96372
#        117438
#        129496
#        141164
#        154493
#        169197
#        183447
#        196836
#        207905
#        224192
#        237439
#        249910
#        270929
#        282558
#        297257
#        299667
#        302077
#        304487
#        306882
#        309292
#        311744
#        314155
#        316565
#        318975
#        321385
#        323795
#        326205
#        328555
#        330965
#        333375
#        335770
#        338181
#        340591
#        343001
#        345401
#
# Disc length: 4637 seconds
#
# Revision: 0
# Processed by: cddbd v1.5.2PL0 Copyright (c) Steve Scherf et al.
# Submitted via: ExactAudioCopy v0.99pb3
#
DISCID=92121b2a
DTITLE=Various Artist - Beats and Rhymes featuring Lotek and Part 2
DYEAR=2007
DGENRE=Ambient
TTITLE0=Bouncin´ beats and hypin´ MC (Latek)
TTITLE1=Live and Online (Latek)
TTITLE2=Chat Room (Part 2)
TTITLE3=Wings (Part 2)
TTITLE4=No Win Situation (Latek)
TTITLE5=String Tune (Latek)
TTITLE6=Keep it B ubblin´ (Part 2)
TTITLE7=Smokey Blue (Latek)
TTITLE8=Afro Electro (Part 2)
TTITLE9=Pump it (Part 2)
TTITLE10=Cello Tune (Latek)
TTITLE11=Summer Heat (Part 2)
TTITLE12=Bouncin´ beats and hypin´ MC (Latek)
TTITLE13=Live and Online (Latek)
TTITLE14=Chat Room (Part 2)
TTITLE15=Wings (Part 2)
TTITLE16=No Win Situation (Latek)
TTITLE17=Keep it B ubblin´ (Part 2)
TTITLE18=Smokey Blue (Latek)
TTITLE19=Pump it (Part 2)
TTITLE20=Summer Heat (Part 2)
TTITLE21=Bouncin´ beats and hypin´ MC (Latek)
TTITLE22=Live and Online (Latek)
TTITLE23=Chat Room (Part 2)
TTITLE24=Wings (Part 2)
TTITLE25=No Win Situation (Latek)
TTITLE26=String Tune (Latek)
TTITLE27=Keep it B ubblin´ (Part 2)
TTITLE28=Smokey Blue (Latek)
TTITLE29=Afro Electro (Part 2)
TTITLE30=Pump it (Part 2)
TTITLE31=Cello Tune (Latek)
TTITLE32=Summer Heat (Part 2)
TTITLE33=Bouncin´ beats and hypin´ MC (Latek)
TTITLE34=Live and Online (Latek)
TTITLE35=Chat Room (Part 2)
TTITLE36=Wings (Part 2)
TTITLE37=No Win Situation (Latek)
TTITLE38=Keep it B ubblin´ (Part 2)
TTITLE39=Smokey Blue (Latek)
TTITLE40=Pump it (Part 2)
TTITLE41=Summer Heat (Part 2)
EXTD=
EXTT0=
EXTT1=
EXTT2=
EXTT3=
EXTT4=
EXTT5=
EXTT6=
EXTT7=
EXTT8=
EXTT9=
EXTT10=
EXTT11=
EXTT12=
EXTT13=
EXTT14=
EXTT15=
EXTT16=
EXTT17=
EXTT18=
EXTT19=
EXTT20=
EXTT21=
EXTT22=
EXTT23=
EXTT24=
EXTT25=
EXTT26=
EXTT27=
EXTT28=
EXTT29=
EXTT30=
EXTT31=
EXTT32=
EXTT33=
EXTT34=
EXTT35=
EXTT36=
EXTT37=
EXTT38=
EXTT39=
EXTT40=
EXTT41=
PLAYORDER=
